Genre:Comedy | Romance | Drama
Language:Korean
IMDb:http://www.imdb.com/title/tt1672091/
Source:DvD
Subtitles:English
............................................
General
Complete name : Gangster Lover.2010.DVDRip.XVID.FEEL-FREE
Format : AVI
Format/Info : Audio Video Interleave
File size : 1.33 GiB
Duration : 1h 45mn
Overall bit rate : 1 809 Kbps
..............................................
Video
ID : 0
Format : MPEG-4 Visual
Format profile : Simple@L3
Format settings, BVOP : No
Format settings, QPel : No
Format settings, GMC : No warppoints
Format settings, Matrix : Default (H.263)
Codec ID : XVID
Codec ID/Hint : XviD
Duration : 1h 45mn
Bit rate : 1 541 Kbps
Width : 720 pixels
Height : 304 pixels
Display aspect ratio : 2.35:1
Frame rate : 23.976 fps
Original frame rate : 23.000 fps
Resolution : 24 bits
Colorimetry : 4:2:0
Scan type : Progressive
Bits/(Pixel*Frame) : 0.294
Stream size : 1.13 GiB (85%)
Writing library : XviD 1.2.1 (UTC 2008-12-04)
.................................................
Audio
ID : 1
Format : MPEG Audio
Format version : Version 1
Format profile : Layer 3
Format settings, Mode : Joint stereo / MS Stereo
Codec ID : 55
Codec ID/Hint : MP3
Duration : 1h 45mn
Bit rate mode : Constant
Bit rate : 256 Kbps
Channel(s) : 2 channels
Sampling rate : 44.1 KHz
Resolution : 16 bits
Stream size : 193 MiB (14%)
Alignment : Aligned on interleaves
Interleave, duration : 26 ms (0.63 video frame)
Writing library : LAME3.98.2
..................................................
Plot:
Dong-chul canÆt fight at all, but heÆs a gangster who can talk. He canÆt show off his skills as well as before, but his spirit is still alive. But the girl who seems nice on the outside moves next door, and she doesnÆt feel threatened by him. If he calls her ôthe girl next door,ö she gets defensive. But for some reason, he wants to be nice to her!
Se-jin has put herself out on the job market. She has big plans and got the semi-basement room. But a gangster who doesnÆt even look like one lives next door. This man calls her ôthe girl next doorö as if he knows her. The gangster that talks too much. She doesnÆt hate him!
A gangster with no charisma, and a very charismatic woman. Their lives together as they head off daily!




................................................. 
http://thepiratebay.org/user/hiest
.................................................


Screens:

 
http://www.starshare.ro/bitbucket/Gangster%20Lover.2010.DVDRip.XVID.FEEL-FREE.avi_thumbs_%5B2010.08.20_16.02.32%5D.jpg
 
http://www.starshare.ro/bitbucket/vlcsnap-2010-08-20-16h03m03s181.jpg
 
http://www.starshare.ro/bitbucket/vlcsnap-2010-08-20-16h03m15s32.jpg
 
http://www.starshare.ro/bitbucket/vlcsnap-2010-08-20-16h03m09s246.jpg



......................................................